<svg width="285" height="105" viewBox="0 0 285 105" fill="none" xmlns="http://www.w3.org/2000/svg">
<path d="M258.218 35.4176C258.218 35.9395 258.06 36.4496 257.764 36.8835C257.467 37.3174 257.046 37.6556 256.553 37.8553C256.06 38.055 255.517 38.1073 254.994 38.0056C254.471 37.9038 253.99 37.6525 253.613 37.2836C253.235 36.9146 252.978 36.4445 252.874 35.9327C252.77 35.421 252.823 34.8905 253.028 34.4084C253.232 33.9263 253.578 33.5142 254.021 33.2243C254.465 32.9344 254.987 32.7797 255.52 32.7797C256.236 32.7797 256.922 33.0576 257.428 33.5523C257.934 34.047 258.218 34.718 258.218 35.4176Z" fill="#3A0039"/>
<path fill-rule="evenodd" clip-rule="evenodd" d="M255.52 24.9739C253.409 24.9739 251.344 25.5862 249.589 26.7334C247.833 27.8807 246.465 29.5112 245.657 31.419C244.849 33.3267 244.637 35.4259 245.049 37.4512C245.461 39.4765 246.478 41.3368 247.971 42.7969C249.464 44.257 251.366 45.2514 253.437 45.6542C255.508 46.0571 257.655 45.8503 259.606 45.0601C261.557 44.2699 263.224 42.9317 264.397 41.2148C265.57 39.4979 266.196 37.4793 266.196 35.4144C266.193 32.6465 265.067 29.993 263.065 28.0358C261.064 26.0786 258.351 24.9774 255.52 24.9739ZM255.52 43.6621C253.853 43.6621 252.223 43.1786 250.837 42.2727C249.45 41.3669 248.37 40.0793 247.732 38.5729C247.093 37.0665 246.927 35.4089 247.252 33.8097C247.577 32.2105 248.38 30.7415 249.559 29.5885C250.738 28.4355 252.24 27.6503 253.875 27.3322C255.511 27.0141 257.206 27.1773 258.746 27.8012C260.287 28.4252 261.603 29.4818 262.53 30.8375C263.456 32.1932 263.95 33.7871 263.951 35.4176C263.951 36.5006 263.733 37.573 263.31 38.5736C262.886 39.5743 262.266 40.4835 261.483 41.2495C260.7 42.0154 259.77 42.623 258.747 43.0375C257.724 43.452 256.628 43.6654 255.52 43.6654V43.6621Z" fill="#3A0039"/>
<path d="M169.529 35.4176C169.528 35.9383 169.37 36.4472 169.074 36.8801C168.778 37.314 168.357 37.6521 167.864 37.8518C167.371 38.0515 166.828 38.1038 166.305 38.002C165.781 37.9002 165.301 37.6489 164.923 37.2799C164.546 36.9109 164.289 36.4409 164.185 35.9291C164.081 35.4173 164.134 34.8868 164.339 34.4047C164.543 33.9227 164.889 33.5106 165.332 33.2207C165.776 32.9308 166.298 32.7761 166.831 32.7761C167.186 32.7761 167.537 32.8444 167.864 32.9772C168.192 33.11 168.489 33.3046 168.74 33.55C168.991 33.7953 169.189 34.0865 169.325 34.407" fill="#3A0039"/>
<path fill-rule="evenodd" clip-rule="evenodd" d="M177.508 35.4176C177.508 33.3527 176.881 31.3342 175.708 29.6173C174.535 27.9005 172.868 26.5623 170.917 25.7721C168.966 24.982 166.819 24.7752 164.749 25.1781C162.678 25.581 160.775 26.5753 159.282 28.0354C157.789 29.4955 156.772 31.3558 156.36 33.381C155.948 35.4063 156.16 37.5055 156.968 39.4132C157.776 41.3209 159.144 42.9515 160.9 44.0987C162.655 45.246 164.72 45.8583 166.831 45.8584C169.662 45.8549 172.375 44.7538 174.377 42.7966C176.378 40.8393 177.504 38.1856 177.508 35.4176ZM166.831 43.6621C165.164 43.6621 163.534 43.1785 162.148 42.2726C160.761 41.3667 159.681 40.0791 159.043 38.5727C158.405 37.0663 158.238 35.4087 158.563 33.8095C158.888 32.2103 159.691 30.7414 160.87 29.5884C162.049 28.4355 163.551 27.6503 165.187 27.3322C166.822 27.0141 168.517 27.1773 170.057 27.8012C171.598 28.4252 172.915 29.4818 173.841 30.8375C174.767 32.1932 175.262 33.7871 175.262 35.4176C175.262 36.5006 175.045 37.5731 174.621 38.5737C174.198 39.5744 173.577 40.4836 172.794 41.2496C172.011 42.0155 171.081 42.6231 170.058 43.0376C169.035 43.4521 167.939 43.6654 166.831 43.6654V43.6621Z" fill="#3A0039"/>
<path d="M271.831 37.1755C272.095 34.998 271.9 32.7906 271.258 30.6897C270.616 28.5888 269.54 26.6389 268.097 24.9602C266.655 23.2815 264.876 21.9098 262.87 20.9295C260.864 19.9493 258.674 19.3814 256.435 19.2608C254.196 19.1403 251.956 19.4697 249.852 20.2287C247.749 20.9876 245.826 22.1601 244.204 23.6738C242.581 25.1874 241.293 27.0101 240.419 29.0294C239.545 31.0486 239.103 33.2217 239.121 35.4144C239.119 37.8464 239.685 40.2468 240.777 42.4322H181.575C182.704 40.1666 183.272 37.6729 183.232 35.1528C183.192 32.6328 182.546 30.1574 181.345 27.9271C180.145 25.6968 178.424 23.7744 176.322 22.3156C174.221 20.8568 171.797 19.9026 169.248 19.5303C166.699 19.158 164.097 19.3781 161.651 20.1728C159.205 20.9674 156.985 22.3143 155.171 24.1043C153.356 25.8943 151.999 28.077 151.208 30.4757C150.417 32.8744 150.214 35.4216 150.617 37.9109C142.831 34.7117 137.803 29.4782 137.803 21.2011C137.803 12.627 164.207 0.567426 181.001 0V10.134C181.001 12.0914 181.796 13.9687 183.212 15.3528C184.627 16.7369 186.547 17.5144 188.548 17.5144H202.991C204.775 17.5118 206.499 16.8902 207.858 15.7602C209.217 14.6303 210.121 13.0655 210.41 11.3444C210.41 11.3444 209.918 4.90383 208.339 3.75946L209.375 3.00448L216.814 11.3509H245.417C264.868 11.3444 280.66 18.3122 280.66 26.8863C280.66 30.8437 277.325 34.435 271.831 37.1755Z" fill="#3A0039"/>
<path d="M0 38.5415H6.96652L30.9301 95.4603H31.5106L55.4741 38.5415H62.4407V103.883H56.7642V51.144H56.2482L33.9618 103.883H28.4789L6.19246 51.144H5.67642V103.883H0V38.5415Z" fill="#3A0039"/>
<path fill-rule="evenodd" clip-rule="evenodd" d="M83.5628 105C80.574 105 77.8433 104.426 75.3707 103.277C72.898 102.107 70.9306 100.427 69.4685 98.2361C68.0064 96.024 67.2753 93.344 67.2753 90.196C67.2753 87.7712 67.7376 85.7293 68.6622 84.0702C69.5867 82.4111 70.8983 81.0498 72.5969 79.9863C74.2956 78.9228 76.306 78.0826 78.6282 77.4658C80.9503 76.849 83.509 76.3704 86.3042 76.0301C89.0779 75.6898 91.4216 75.392 93.3353 75.1367C95.2704 74.8815 96.7433 74.4774 97.7538 73.9243C98.7644 73.3713 99.2697 72.478 99.2697 71.2443V70.0957C99.2697 66.7563 98.2591 64.1294 96.238 62.2151C94.2383 60.2795 91.3571 59.3118 87.5943 59.3118C84.0251 59.3118 81.1116 60.0881 78.8539 61.6408C76.6177 63.1936 75.0481 65.0228 74.1451 67.1285L68.6944 65.1823C69.8125 62.5023 71.3606 60.3646 73.3388 58.7694C75.3169 57.1528 77.5316 55.9936 79.9827 55.2917C82.4339 54.5685 84.9174 54.2069 87.4331 54.2069C89.3252 54.2069 91.2926 54.4515 93.3353 54.9407C95.3994 55.43 97.313 56.2808 99.0762 57.4932C100.839 58.6843 102.269 60.354 103.366 62.5023C104.462 64.6293 105.011 67.3306 105.011 70.6062V103.883H99.2697V96.1304H98.9149C98.2269 97.5767 97.2055 98.9805 95.8509 100.342C94.4963 101.703 92.7977 102.82 90.7551 103.692C88.7124 104.564 86.315 105 83.5628 105ZM84.3368 99.7994C87.39 99.7994 90.0347 99.1294 92.2709 97.7894C94.5071 96.4494 96.2272 94.6733 97.4313 92.4613C98.6569 90.2279 99.2697 87.7712 99.2697 85.0912V78.0082C98.8397 78.4123 98.1194 78.7739 97.1088 79.093C96.1197 79.412 94.9694 79.6992 93.6578 79.9544C92.3677 80.1884 91.0776 80.3905 89.7875 80.5606C88.4974 80.7308 87.3363 80.8797 86.3042 81.0073C83.509 81.3476 81.1223 81.8794 79.1442 82.6025C77.166 83.3257 75.6502 84.3254 74.5966 85.6016C73.543 86.8566 73.0162 88.4731 73.0162 90.4512C73.0162 93.429 74.0913 95.7369 76.2415 97.3747C78.3916 98.9912 81.0901 99.7994 84.3368 99.7994Z" fill="#3A0039"/>
<path d="M116.941 38.5415V103.883H111.2V38.5415H116.941Z" fill="#3A0039"/>
<path d="M128.79 38.5415V103.883H123.049V38.5415H128.79Z" fill="#3A0039"/>
<path fill-rule="evenodd" clip-rule="evenodd" d="M154.154 104.904C149.875 104.904 146.091 103.83 142.801 101.682C139.533 99.5336 136.974 96.5664 135.125 92.7803C133.276 88.973 132.351 84.5807 132.351 79.6035C132.351 74.5837 133.276 70.1702 135.125 66.3628C136.974 62.5342 139.533 59.5564 142.801 57.4293C146.091 55.2811 149.875 54.2069 154.154 54.2069C158.432 54.2069 162.206 55.2811 165.474 57.4293C168.742 59.5776 171.301 62.5554 173.15 66.3628C175.021 70.1702 175.956 74.5837 175.956 79.6035C175.956 84.5807 175.032 88.973 173.183 92.7803C171.333 96.5664 168.764 99.5336 165.474 101.682C162.206 103.83 158.432 104.904 154.154 104.904ZM154.154 99.7037C157.594 99.7037 160.507 98.7891 162.894 96.9599C165.281 95.1307 167.087 92.6952 168.312 89.6536C169.56 86.612 170.183 83.2619 170.183 79.6035C170.183 75.945 169.56 72.5843 168.312 69.5214C167.087 66.4585 165.281 64.0018 162.894 62.1513C160.507 60.3008 157.594 59.3756 154.154 59.3756C150.735 59.3756 147.821 60.3008 145.413 62.1513C143.027 64.0018 141.21 66.4585 139.963 69.5214C138.737 72.5843 138.124 75.945 138.124 79.6035C138.124 83.2619 138.737 86.612 139.963 89.6536C141.21 92.6952 143.027 95.1307 145.413 96.9599C147.8 98.7891 150.713 99.7037 154.154 99.7037Z" fill="#3A0039"/>
<path d="M198.828 104.904C194.399 104.904 190.539 103.809 187.249 101.618C183.981 99.4272 181.444 96.4281 179.638 92.6208C177.832 88.8134 176.929 84.4743 176.929 79.6035C176.929 74.6901 177.842 70.319 179.67 66.4904C181.519 62.6618 184.078 59.6627 187.346 57.4932C190.614 55.3023 194.409 54.2069 198.731 54.2069C202.043 54.2069 205.042 54.845 207.73 56.1212C210.417 57.3762 212.632 59.1522 214.374 61.4494C216.137 63.7253 217.244 66.3841 217.696 69.4257H211.89C211.288 66.6606 209.837 64.2996 207.536 62.3427C205.257 60.3646 202.354 59.3756 198.828 59.3756C195.667 59.3756 192.872 60.2264 190.442 61.928C188.013 63.6083 186.11 65.9587 184.734 68.979C183.379 71.9781 182.702 75.4558 182.702 79.412C182.702 83.3895 183.368 86.9097 184.701 89.9726C186.035 93.0143 187.905 95.3965 190.313 97.1194C192.743 98.8423 195.581 99.7037 198.828 99.7037C201.021 99.7037 203.021 99.2996 204.827 98.4913C206.655 97.6618 208.181 96.4919 209.407 94.9818C210.654 93.4716 211.492 91.6743 211.923 89.5898H217.728C217.298 92.5463 216.234 95.1838 214.535 97.5023C212.858 99.7994 210.675 101.607 207.988 102.926C205.322 104.245 202.268 104.904 198.828 104.904Z" fill="#3A0039"/>
<path fill-rule="evenodd" clip-rule="evenodd" d="M234.786 105C231.798 105 229.067 104.426 226.594 103.277C224.121 102.107 222.154 100.427 220.692 98.2361C219.23 96.024 218.499 93.344 218.499 90.196C218.499 87.7712 218.961 85.7293 219.886 84.0702C220.81 82.4111 222.122 81.0498 223.82 79.9863C225.519 78.9228 227.529 78.0826 229.852 77.4658C232.174 76.849 234.733 76.3704 237.528 76.0301C240.301 75.6898 242.645 75.392 244.559 75.1367C246.494 74.8815 247.967 74.4774 248.977 73.9243C249.988 73.3713 250.493 72.478 250.493 71.2443V70.0957C250.493 66.7563 249.483 64.1294 247.461 62.2151C245.462 60.2795 242.581 59.3118 238.818 59.3118C235.249 59.3118 232.335 60.0881 230.077 61.6408C227.841 63.1936 226.272 65.0228 225.369 67.1285L219.918 65.1823C221.036 62.5023 222.584 60.3646 224.562 58.7694C226.54 57.1528 228.755 55.9936 231.206 55.2917C233.657 54.5685 236.141 54.2069 238.657 54.2069C240.549 54.2069 242.516 54.4515 244.559 54.9407C246.623 55.43 248.537 56.2808 250.3 57.4932C252.063 58.6843 253.493 60.354 254.589 62.5023C255.686 64.6293 256.234 67.3306 256.234 70.6062V103.883H250.493V96.1304H250.138C249.45 97.5767 248.429 98.9805 247.074 100.342C245.72 101.703 244.021 102.82 241.979 103.692C239.936 104.564 237.538 105 234.786 105ZM235.56 99.7994C238.614 99.7994 241.258 99.1294 243.494 97.7894C245.731 96.4494 247.451 94.6733 248.655 92.4613C249.88 90.2279 250.493 87.7712 250.493 85.0912V78.0082C250.063 78.4123 249.343 78.7739 248.332 79.093C247.343 79.412 246.193 79.6992 244.881 79.9544C243.591 80.1884 242.301 80.3905 241.011 80.5606C239.721 80.7308 238.56 80.8797 237.528 81.0073C234.733 81.3476 232.346 81.8794 230.368 82.6025C228.39 83.3257 226.874 84.3254 225.82 85.6016C224.766 86.8566 224.24 88.4731 224.24 90.4512C224.24 93.429 225.315 95.7369 227.465 97.3747C229.615 98.9912 232.314 99.7994 235.56 99.7994Z" fill="#3A0039"/>
<path d="M262.423 103.883V54.8769H268.003V62.4066H268.422C269.411 59.9392 271.131 57.9505 273.583 56.4403C276.055 54.9088 278.851 54.1431 281.968 54.1431C282.441 54.1431 282.968 54.1537 283.549 54.175C284.129 54.1963 284.613 54.2176 285 54.2388V60.0137C284.742 59.9711 284.29 59.9073 283.645 59.8222C283 59.7372 282.302 59.6946 281.549 59.6946C278.969 59.6946 276.668 60.237 274.647 61.3218C272.647 62.3853 271.067 63.8636 269.906 65.7566C268.745 67.6496 268.164 69.8086 268.164 72.2334V103.883H262.423Z" fill="#3A0039"/>
<path d="M134.019 51.9417H284.444V49.134H134.019V51.9417Z" fill="#3A0039"/>
</svg>
